<svg xmlns="http://www.w3.org/2000/svg" xmlns:xlink="http://www.w3.org/1999/xlink" width="63" height="63" viewBox="0 0 63 63">
  <defs>
    <filter id="Ellipse_5" x="0" y="0" width="63" height="63" filterUnits="userSpaceOnUse">
      <feOffset dy="2" input="SourceAlpha"/>
      <feGaussianBlur stdDeviation="2.5" result="blur"/>
      <feFlood flood-opacity="0.2"/>
      <feComposite operator="in" in2="blur"/>
      <feComposite in="SourceGraphic"/>
    </filter>
  </defs>
  <g id="btn--insta__rounded" transform="translate(-466.5 -531.5)">
    <g transform="matrix(1, 0, 0, 1, 466.5, 531.5)" filter="url(#Ellipse_5)">
      <circle id="Ellipse_5-2" data-name="Ellipse 5" cx="24" cy="24" r="24" transform="translate(7.5 5.5)" fill="#477399"/>
    </g>
    <path id="instagram" d="M4.416,16A4.421,4.421,0,0,1,0,11.584V4.415A4.421,4.421,0,0,1,4.416,0h7.17A4.42,4.42,0,0,1,16,4.415v7.169A4.42,4.42,0,0,1,11.585,16Zm-3-11.585v7.169a3,3,0,0,0,3,3h7.17a3,3,0,0,0,3-3V4.415a3,3,0,0,0-3-3H4.416A3,3,0,0,0,1.42,4.415ZM3.877,8A4.123,4.123,0,1,1,8,12.123,4.128,4.128,0,0,1,3.877,8ZM5.3,8A2.7,2.7,0,1,0,8,5.3,2.707,2.707,0,0,0,5.3,8Zm6.264-3.549a1.04,1.04,0,1,1,.735.3A1.048,1.048,0,0,1,11.561,4.451Z" transform="translate(489.59 552.59)" fill="#fff"/>
  </g>
</svg>
